<svg xmlns="http://www.w3.org/2000/svg" viewBox="0 0 1200 630" role="img" aria-label="로또 당첨번호 대시보드">
  <defs>
    <linearGradient id="bg" x1="0" y1="0" x2="1" y2="1">
      <stop offset="0%" stop-color="#0f172a"/>
      <stop offset="100%" stop-color="#1e1b4b"/>
    </linearGradient>
    <radialGradient id="glow" cx="80%" cy="20%" r="60%">
      <stop offset="0%" stop-color="#6366f1" stop-opacity="0.4"/>
      <stop offset="100%" stop-color="#6366f1" stop-opacity="0"/>
    </radialGradient>
    <radialGradient id="ball" cx="35%" cy="30%" r="70%">
      <stop offset="0%" stop-color="#ffffff" stop-opacity="0.55"/>
      <stop offset="60%" stop-color="#ffffff" stop-opacity="0"/>
    </radialGradient>
  </defs>
  <rect width="1200" height="630" fill="url(#bg)"/>
  <rect width="1200" height="630" fill="url(#glow)"/>

  <!-- Lotto balls -->
  <g transform="translate(80,380)">
    <g transform="translate(0,0)"><circle cx="0" cy="0" r="68" fill="#FBC400"/><circle cx="0" cy="0" r="68" fill="url(#ball)"/><text x="0" y="22" text-anchor="middle" font-family="system-ui,sans-serif" font-size="64" font-weight="800" fill="#ffffff">3</text></g>
    <g transform="translate(160,0)"><circle cx="0" cy="0" r="68" fill="#69C8F2"/><circle cx="0" cy="0" r="68" fill="url(#ball)"/><text x="0" y="22" text-anchor="middle" font-family="system-ui,sans-serif" font-size="64" font-weight="800" fill="#ffffff">13</text></g>
    <g transform="translate(320,0)"><circle cx="0" cy="0" r="68" fill="#FF7272"/><circle cx="0" cy="0" r="68" fill="url(#ball)"/><text x="0" y="22" text-anchor="middle" font-family="system-ui,sans-serif" font-size="64" font-weight="800" fill="#ffffff">28</text></g>
    <g transform="translate(480,0)"><circle cx="0" cy="0" r="68" fill="#AAAAAA"/><circle cx="0" cy="0" r="68" fill="url(#ball)"/><text x="0" y="22" text-anchor="middle" font-family="system-ui,sans-serif" font-size="64" font-weight="800" fill="#ffffff">34</text></g>
    <g transform="translate(640,0)"><circle cx="0" cy="0" r="68" fill="#AAAAAA"/><circle cx="0" cy="0" r="68" fill="url(#ball)"/><text x="0" y="22" text-anchor="middle" font-family="system-ui,sans-serif" font-size="64" font-weight="800" fill="#ffffff">38</text></g>
    <g transform="translate(800,0)"><circle cx="0" cy="0" r="68" fill="#B0D840"/><circle cx="0" cy="0" r="68" fill="url(#ball)"/><text x="0" y="22" text-anchor="middle" font-family="system-ui,sans-serif" font-size="64" font-weight="800" fill="#ffffff">42</text></g>
    <g transform="translate(1000,0)"><circle cx="0" cy="0" r="68" fill="#FF7272"/><circle cx="0" cy="0" r="68" fill="url(#ball)"/><text x="0" y="22" text-anchor="middle" font-family="system-ui,sans-serif" font-size="64" font-weight="800" fill="#ffffff">25</text></g>
  </g>

  <text x="80" y="180" font-family="system-ui,sans-serif" font-size="78" font-weight="800" fill="#ffffff" letter-spacing="-2">로또 당첨번호 대시보드</text>
  <text x="80" y="240" font-family="system-ui,sans-serif" font-size="36" font-weight="500" fill="#a5b4fc">6/45 역대 회차 조회 · 1등 당첨금 · 통계</text>
  <text x="80" y="575" font-family="system-ui,sans-serif" font-size="26" font-weight="400" fill="#94a3b8">lotto.example.com · 1,200+ 회차 전체 제공</text>
</svg>
